<?xml version="1.0" standalone="no"?>
<!DOCTYPE svg PUBLIC "-//W3C//DTD SVG 20010904//EN"
 "http://www.w3.org/TR/2001/REC-SVG-20010904/DTD/svg10.dtd">
<svg version="1.0" xmlns="http://www.w3.org/2000/svg"
 width="248.816987pt" height="241.156379pt" viewBox="0 0 248.816987 241.156379"
 preserveAspectRatio="xMidYMid meet">
<metadata>
Created by potrace 1.12, written by Peter Selinger 2001-2015
</metadata>
<g transform="translate(-24.027740,242.527121) scale(0.100000,-0.100000)"
fill="#000000" stroke="none">
<path d="M1825 2414 c-33 -8 -75 -17 -94 -19 -19 -3 -39 -9 -45 -12 -14 -10
-32 -13 -81 -15 -22 -1 -44 -4 -50 -8 -9 -6 -48 -18 -130 -39 -64 -17 -133
-18 -189 -3 -33 9 -41 8 -58 -7 -11 -11 -41 -20 -76 -24 -73 -6 -109 -23 -115
-53 -2 -13 -3 -24 -2 -24 1 0 21 7 44 15 22 8 41 12 41 9 0 -2 9 0 20 6 17 9
20 8 20 -10 0 -12 7 -28 15 -36 23 -24 18 -37 -11 -30 -22 6 -25 4 -19 -14 5
-15 2 -20 -12 -20 -26 -1 -66 -37 -59 -55 5 -13 32 -20 59 -16 4 0 7 -3 7 -8
0 -5 -20 -7 -45 -5 -28 3 -45 1 -45 -5 0 -6 -9 -11 -20 -11 -11 0 -20 5 -20
11 0 5 4 7 10 4 6 -3 10 -1 10 6 0 7 -13 10 -34 7 -19 -2 -32 0 -30 4 3 4 -11
8 -32 8 -42 0 -114 19 -114 31 0 4 15 3 33 -3 40 -13 168 -30 174 -24 10 10
-8 25 -37 30 -17 3 -44 9 -60 12 -35 6 -39 20 -10 29 46 15 101 59 98 80 -2
15 -9 19 -27 17 -32 -5 -92 -43 -122 -79 -27 -32 -37 -32 -129 -6 -116 33
-130 12 -44 -65 77 -68 71 -83 -31 -81 -41 1 -75 5 -75 9 0 5 -15 7 -32 6 -18
-2 -43 -4 -55 -5 -48 -3 -78 -71 -32 -71 10 0 19 -4 19 -9 0 -5 10 -12 23 -16
12 -3 38 -11 59 -17 l36 -11 -19 -21 -20 -21 40 -10 c47 -12 57 -20 44 -37 -6
-7 -18 -38 -28 -68 -31 -97 -78 -199 -106 -229 -11 -11 -19 -24 -19 -28 0 -5
-8 -16 -17 -24 -10 -9 -27 -27 -38 -40 -11 -13 -32 -33 -45 -44 -40 -33 -57
-58 -65 -93 -7 -32 -5 -34 15 -27 12 4 37 22 57 41 19 19 39 34 45 34 6 0 30
14 55 30 24 17 47 30 51 30 17 0 135 126 159 169 14 25 29 51 33 56 4 6 11 25
15 43 7 32 36 45 50 22 4 -6 9 -8 13 -6 4 2 16 -2 27 -10 18 -14 18 -14 -3
-14 -45 0 -19 -38 70 -103 20 -15 43 -27 52 -27 8 0 18 -4 21 -10 3 -5 1 -10
-4 -10 -6 0 -11 -7 -11 -16 0 -25 39 -58 100 -84 14 -6 34 -15 45 -20 11 -5
36 -16 57 -24 53 -21 138 -106 138 -138 0 -14 -7 -29 -16 -32 -13 -5 -15 1
-12 32 l3 37 -86 3 -86 3 -49 -47 -48 -47 -61 11 c-33 6 -88 11 -121 10 -34 0
-67 3 -75 7 -7 5 -23 10 -35 11 -13 1 -32 12 -43 23 -31 31 -77 52 -132 58
-59 7 -140 -26 -161 -67 -7 -14 -21 -32 -30 -40 -34 -30 -43 -135 -14 -146 7
-3 31 2 55 11 51 18 97 20 106 4 4 -6 13 -8 20 -5 7 2 17 0 21 -4 5 -5 40 -21
78 -34 66 -24 71 -25 132 -10 35 8 74 12 87 9 12 -4 36 -1 51 5 16 6 30 9 33
7 3 -3 -16 -51 -49 -127 -22 -49 -47 -125 -48 -143 0 -10 -7 -20 -15 -23 -8
-3 -17 -14 -20 -23 -12 -39 -45 -61 -88 -61 -52 0 -63 -8 -121 -87 -25 -35
-49 -63 -53 -63 -5 0 -21 -13 -38 -28 -16 -15 -45 -37 -62 -47 -18 -11 -33
-25 -33 -31 0 -7 -7 -14 -14 -17 -19 -8 -32 -75 -18 -89 8 -8 16 -7 27 2 21
17 29 7 15 -20 -6 -11 -10 -33 -8 -48 3 -24 0 -27 -24 -24 -36 4 -65 -12 -83
-48 -17 -33 -20 -96 -5 -105 5 -3 92 -6 192 -5 101 0 190 1 198 0 8 0 49 -2
90 -4 136 -8 1429 -10 1437 -2 4 4 1 11 -7 16 -12 8 -9 10 10 10 20 0 22 2 10
10 -22 15 -6 12 24 -4 l27 -14 -27 -6 c-14 -4 -24 -10 -20 -13 10 -11 387 -13
381 -2 -4 5 3 9 14 9 12 0 21 -4 21 -9 0 -11 96 -9 107 2 26 26 -8 122 -54
153 -30 20 -73 44 -79 44 -2 0 -5 -12 -5 -27 -2 -27 -2 -27 -6 -3 -7 37 -19
44 -44 26 -32 -22 -101 -1 -134 42 -6 7 -15 12 -20 11 -6 -1 -18 1 -28 5 -9 5
-29 5 -45 0 -15 -4 -34 -8 -42 -9 -8 0 -47 -17 -87 -37 -57 -29 -74 -34 -82
-24 -21 25 -125 40 -209 30 -79 -9 -127 -2 -147 23 -5 7 -27 19 -48 28 -21 9
-40 22 -43 29 -5 14 -62 15 -84 1 -5 -3 -37 -1 -69 5 -56 10 -64 9 -110 -15
-28 -14 -66 -25 -85 -25 -19 0 -38 -5 -41 -10 -4 -6 -10 -8 -16 -5 -5 3 -73
-5 -151 -18 -79 -13 -161 -23 -183 -22 -59 4 -148 -11 -189 -30 -20 -10 -39
-15 -42 -12 -3 3 -1 22 6 41 13 42 104 124 170 154 25 12 56 31 70 44 14 13
40 30 58 37 17 7 32 17 32 21 0 5 18 11 40 15 22 4 40 10 40 15 0 4 12 11 28
14 47 12 133 75 144 107 5 16 16 29 24 29 8 0 14 5 14 10 0 6 10 20 22 32 21
21 32 22 150 23 74 0 128 -4 128 -9 0 -6 5 -5 12 2 7 7 35 12 64 12 30 0 71 8
98 20 25 12 60 22 78 23 38 2 104 62 120 108 8 22 14 27 26 20 25 -12 93 -21
87 -11 -3 5 7 16 22 24 45 24 120 104 146 155 7 14 27 34 45 44 l34 20 -2 -39
c-3 -55 -2 -58 15 -44 21 18 19 3 -5 -27 -20 -25 -20 -25 0 -53 11 -16 20 -32
20 -37 0 -5 11 -16 25 -23 39 -21 56 3 63 88 3 53 0 77 -13 106 -10 20 -15 40
-11 43 9 9 44 -26 52 -51 4 -11 10 -23 15 -26 7 -5 15 -33 18 -62 2 -20 20 -5
26 22 8 37 25 30 25 -11 0 -16 5 -29 13 -30 6 0 34 -4 60 -8 60 -10 67 0 43
73 -10 34 -29 64 -51 85 -19 17 -35 36 -35 41 0 15 -88 49 -159 61 -36 6 -71
15 -76 20 -6 4 -33 15 -60 24 -43 15 -56 16 -103 4 -30 -7 -60 -19 -67 -26
-24 -23 -30 -14 -32 45 -1 37 -9 75 -22 103 -12 24 -24 60 -27 79 -3 19 -18
75 -35 123 -16 49 -29 99 -29 112 0 13 -4 27 -10 30 -5 3 -10 15 -10 27 0 14
5 18 16 14 9 -3 24 -6 34 -6 11 0 28 -9 38 -20 35 -38 86 -70 109 -70 23 0 27
8 23 43 -1 15 5 18 32 15 31 -3 33 -1 32 27 -3 69 -64 164 -116 181 -14 4 -16
12 -12 30 5 18 1 29 -12 39 -18 14 -18 15 5 12 13 -1 28 5 34 14 12 19 2 69
-14 69 -7 0 -9 -10 -5 -25 4 -14 4 -25 2 -25 -10 0 -117 113 -112 118 10 9 68
4 79 -7 6 -6 23 -11 37 -11 14 0 35 -8 46 -18 10 -10 35 -27 54 -39 38 -24 97
-84 118 -120 12 -22 10 -23 -21 -23 -23 0 -43 -9 -62 -26 -25 -23 -27 -30 -23
-81 4 -47 10 -60 34 -80 16 -12 44 -26 62 -29 31 -6 32 -8 32 -54 0 -76 27
-198 54 -244 24 -42 110 -123 167 -159 16 -11 29 -25 29 -32 0 -7 6 -18 14
-24 8 -7 22 -27 31 -46 20 -43 31 -44 39 -4 9 48 8 52 -24 88 -42 45 -166 230
-175 261 -4 14 -7 79 -6 145 1 90 -3 127 -14 149 -9 16 -12 33 -7 40 19 26 32
98 27 148 -4 29 -20 80 -35 113 -33 68 -115 159 -137 151 -8 -3 -11 -2 -8 3 3
5 1 12 -4 15 -10 7 -24 -22 -16 -34 3 -5 12 -7 20 -3 24 9 17 -11 -7 -22 -15
-7 -25 -22 -29 -45 -4 -23 -7 -27 -8 -12 -1 17 -5 22 -18 18 -16 -5 -18 2 -21
54 -2 50 0 59 13 54 8 -3 15 -10 15 -15 0 -5 7 -9 15 -9 31 0 13 28 -35 54
-27 15 -50 31 -50 35 0 10 -142 33 -230 36 -41 2 -102 -4 -135 -11z m22 -114
c-16 -53 -14 -60 15 -60 11 0 18 7 18 20 0 11 7 20 16 20 11 0 14 -6 9 -20 -5
-16 -2 -20 14 -20 29 0 27 29 -4 90 -14 27 -25 51 -25 54 0 2 42 3 93 1 64 -1
112 -9 160 -25 66 -22 67 -24 52 -44 -9 -12 -18 -29 -22 -38 -3 -10 -9 -18
-13 -18 -4 0 -12 -11 -18 -25 -10 -22 -15 -24 -39 -14 -16 6 -48 7 -82 2 -31
-4 -64 -7 -74 -5 -21 2 -32 -20 -22 -45 6 -17 7 -17 16 0 12 21 33 23 26 2 -4
-8 0 -27 8 -42 18 -35 9 -45 -15 -15 -10 12 -23 22 -28 22 -6 0 -13 6 -16 13
-4 8 -9 7 -18 -7 -7 -10 -23 -30 -35 -44 -29 -32 -29 -35 2 -30 20 4 24 1 22
-16 -1 -13 5 -22 17 -24 23 -5 38 16 31 45 -4 17 -1 20 15 16 11 -3 20 -9 20
-13 0 -4 20 -34 45 -66 25 -31 45 -62 45 -67 0 -6 14 -23 32 -39 29 -26 41
-32 60 -30 12 2 30 -27 23 -38 -3 -5 -15 -10 -26 -10 -23 0 -25 -15 -3 -24 25
-10 34 -7 34 9 0 21 17 19 29 -4 20 -37 -25 -43 -78 -10 -33 20 -36 20 -48 4
-11 -17 -14 -17 -37 -1 -17 10 -57 18 -117 22 -81 5 -94 8 -114 30 -25 27 -45
25 -45 -4 1 -21 117 -105 132 -96 20 13 27 -20 11 -55 -14 -33 -30 -102 -36
-157 -1 -11 -8 -28 -16 -38 -18 -22 -6 -33 16 -15 15 12 16 12 8 -1 -4 -8 -16
-27 -26 -41 -10 -14 -15 -30 -11 -34 4 -5 1 -5 -5 -1 -8 4 -13 1 -13 -8 0 -23
-62 -67 -77 -54 -9 7 -13 7 -13 0 0 -5 -9 -8 -20 -5 -21 6 -27 28 -10 38 6 3
10 -1 10 -9 0 -9 5 -16 10 -16 6 0 10 4 10 10 0 5 7 7 17 3 12 -5 10 2 -8 26
-18 24 -25 29 -27 17 -2 -9 -8 -14 -13 -10 -6 4 -5 11 2 20 10 13 14 12 30 -2
35 -32 32 -5 -4 35 -19 22 -41 50 -47 63 -10 18 -5 16 24 -11 20 -19 36 -30
36 -25 0 6 -9 19 -20 29 -11 10 -20 23 -20 29 0 6 5 5 12 -2 20 -20 25 -14 25
30 0 30 -6 48 -21 61 -17 15 -18 18 -3 13 14 -5 17 1 17 37 0 24 -8 52 -18 65
l-18 23 -13 -36 c-7 -20 -9 -41 -4 -48 4 -7 -2 -1 -15 13 -13 15 -21 33 -18
44 3 11 0 26 -6 33 -13 16 4 17 20 1 8 -8 15 -8 25 1 11 9 17 8 27 -4 17 -21
33 -19 21 2 -6 11 -6 24 1 36 5 10 6 26 3 35 -6 15 -8 15 -15 -3 -6 -18 -9
-15 -24 19 -9 21 -16 44 -16 50 1 6 7 -4 15 -22 13 -30 16 -31 40 -20 21 9 25
18 24 52 -1 23 -4 52 -8 66 -8 27 -17 19 -31 -28 -7 -23 -8 -20 -9 21 -1 43 1
47 23 47 13 0 27 -6 29 -12 3 -7 6 -1 6 14 1 15 -3 30 -9 33 -5 3 -10 -2 -11
-12 0 -16 -1 -16 -8 2 -5 11 -4 28 1 38 5 9 7 17 6 18 -56 13 -106 15 -148 5
-28 -6 -33 -6 -23 4 7 7 43 15 81 16 56 3 72 1 88 -14 11 -10 34 -22 52 -25
30 -6 33 -4 39 23 3 17 9 30 14 30 12 0 49 37 49 49 0 10 -52 31 -92 37 -18 2
-28 -1 -28 -9 0 -7 -16 -13 -37 -15 -20 -1 -42 -7 -49 -13 -14 -12 -49 -5 -41
8 3 5 1 35 -4 67 -8 46 -7 61 3 68 22 13 23 10 26 -54 1 -34 4 -63 6 -65 7 -7
80 13 83 24 2 6 -2 17 -10 24 -11 10 -12 18 -4 31 9 13 7 22 -8 38 -10 11 -16
22 -14 24 2 2 26 6 52 9 27 3 52 8 55 12 14 14 13 -37 -1 -85z m-209 -9 c14
-46 15 -51 4 -51 -10 0 -33 45 -39 73 -6 34 24 16 35 -22z m-74 16 c-5 -13 54
-97 68 -97 4 0 8 -6 8 -14 0 -9 -18 -16 -51 -20 -28 -4 -53 -5 -56 -2 -3 2 -7
23 -10 46 -6 40 -5 42 16 35 20 -6 22 -4 19 17 -3 21 -7 23 -48 20 -45 -4 -70
-21 -70 -50 0 -12 4 -11 20 3 20 18 20 17 22 -11 0 -16 1 -37 0 -46 -1 -10 5
-18 13 -18 8 0 15 -4 15 -10 0 -5 -15 -10 -32 -10 -18 0 -39 -4 -45 -8 -7 -4
-54 -4 -105 0 -59 5 -95 5 -102 -2 -7 -7 0 -10 20 -10 17 0 34 -3 38 -7 12
-12 88 -14 143 -2 28 5 72 12 98 14 40 3 45 2 34 -11 -7 -9 -21 -13 -31 -10
-11 2 -22 -2 -24 -9 -7 -18 14 -57 27 -50 15 10 10 -4 -13 -35 -16 -23 -25
-27 -35 -19 -10 9 -13 8 -13 -1 0 -6 9 -14 19 -17 20 -5 33 -40 28 -78 -1 -12
3 -19 11 -17 17 3 15 -13 -5 -29 -9 -8 -22 -29 -30 -47 -14 -33 -33 -39 -41
-11 -3 12 -2 12 7 -1 5 -8 13 -11 17 -7 4 4 2 13 -4 19 -16 16 -15 28 3 28 8
0 15 6 16 13 0 6 2 27 5 45 2 21 0 31 -6 27 -6 -3 -10 -17 -10 -30 0 -13 -5
-27 -11 -30 -17 -11 -23 3 -9 21 9 10 10 18 4 22 -6 4 -16 22 -24 41 -24 58
-72 99 -136 116 -71 18 -97 19 -92 3 3 -7 22 -14 44 -15 45 -2 105 -25 124
-47 17 -22 4 -20 -28 3 -17 12 -50 20 -92 23 -36 3 -91 13 -123 22 -49 15 -56
20 -46 32 11 13 14 13 21 0 5 -9 19 -16 31 -16 20 1 21 2 5 14 -26 19 -22 26
12 26 20 0 30 5 30 15 0 8 -6 15 -13 15 -9 0 -12 10 -9 31 3 20 -1 35 -9 41
-11 7 -11 11 -1 15 6 2 12 14 12 26 0 39 13 7 19 -48 3 -31 11 -54 16 -53 6 2
9 10 8 18 -1 8 0 22 3 30 4 10 8 8 17 -10 9 -18 21 -25 41 -25 16 0 31 5 33
12 3 8 -6 11 -24 10 -22 -2 -28 2 -28 18 0 14 7 20 25 22 14 0 29 1 33 2 4 1
3 11 -4 22 -11 21 -10 22 20 16 18 -4 31 -2 31 3 0 6 6 10 14 10 13 0 26 -48
26 -102 0 -21 5 -28 20 -28 21 0 21 5 5 111 -4 28 -8 26 85 48 52 13 60 12 54
-2z m-324 -52 c-22 -24 -25 -24 -31 -8 -12 30 -10 33 23 33 l31 0 -23 -25z
m965 -47 c0 -16 65 -68 85 -68 5 0 14 9 20 20 6 11 15 18 21 15 5 -4 12 1 15
9 13 33 32 17 30 -24 -4 -78 -40 -81 -134 -13 -68 50 -94 89 -55 81 10 -2 18
-11 18 -20z m-435 -44 l25 -14 -29 2 c-16 2 -31 9 -34 16 -5 16 7 15 38 -4z
m243 -19 c13 -8 34 -29 46 -47 l24 -33 -35 33 c-20 19 -38 30 -40 25 -3 -4 -3
-2 -2 4 2 7 -5 17 -14 22 -9 6 -13 11 -9 11 4 0 18 -7 30 -15z m-353 -45 c-19
-13 -30 -13 -30 0 0 6 10 10 23 10 18 0 19 -2 7 -10z m775 -24 c8 10 15 14 15
7 0 -6 3 -18 6 -27 5 -13 -1 -16 -26 -16 -17 0 -40 -5 -51 -10 -22 -13 -23
-10 -6 21 27 52 30 54 39 29 8 -22 9 -23 23 -4z m-845 -1 c0 -19 -21 -19 -46
0 -18 14 -17 14 14 15 22 0 32 -5 32 -15z m-812 -27 c2 7 8 12 13 12 4 0 6 -7
2 -16 -5 -14 -1 -16 20 -12 15 3 27 2 27 -3 0 -4 14 -10 30 -14 17 -4 30 -11
30 -17 0 -12 -52 -3 -103 19 -33 14 -40 15 -48 2 -7 -11 -10 -10 -15 9 -4 12
-10 22 -15 22 -5 0 -9 4 -9 9 0 5 14 2 32 -6 23 -12 33 -13 36 -5z m907 15
c-11 -3 -39 -11 -62 -18 -24 -7 -43 -9 -43 -5 0 13 51 28 90 28 21 0 27 -2 15
-5z m377 -23 c-1 -7 5 -18 15 -26 10 -7 14 -14 9 -14 -15 0 -46 32 -46 47 0 8
6 13 13 10 6 -2 11 -10 9 -17z m-838 -19 c108 -16 185 -56 191 -101 0 -3 6
-15 13 -27 13 -23 12 -64 -1 -74 -4 -3 -2 -19 4 -35 7 -16 13 -35 13 -42 1 -7
8 -17 16 -22 12 -8 13 -10 1 -10 -10 0 -8 -7 7 -23 12 -13 22 -32 22 -43 0
-11 5 -25 12 -32 6 -6 9 -14 6 -18 -4 -3 -14 9 -24 28 -9 18 -31 53 -47 78
-25 36 -31 54 -31 102 -1 45 2 57 12 53 8 -3 12 0 9 7 -2 7 -11 12 -19 12 -8
-1 -23 12 -33 29 l-18 30 28 -7 c25 -6 27 -5 16 8 -22 27 -101 58 -179 72 -73
12 -93 12 -79 -2 6 -7 85 -23 138 -29 31 -3 69 -22 69 -34 0 -15 -27 -31 -43
-25 -8 3 -17 13 -20 23 -3 13 -23 21 -75 30 -41 7 -83 22 -98 33 l-26 21 23
13 c13 7 26 9 29 5 3 -5 41 -13 84 -20z m446 0 c-8 -6 -17 -8 -21 -5 -4 2 -10
0 -14 -6 -3 -5 -12 -10 -18 -10 -21 1 26 30 47 30 17 0 18 -2 6 -9z m-945 -21
c-3 -5 0 -10 7 -10 7 -1 -3 -8 -22 -17 -19 -8 -30 -17 -23 -20 7 -2 10 -10 7
-18 -3 -7 -1 -16 4 -19 6 -3 12 0 15 8 4 9 14 12 26 9 26 -7 28 -23 4 -24 -16
-1 -16 -2 0 -6 10 -3 27 3 38 13 17 16 19 16 19 1 0 -20 4 -21 30 -4 17 10 22
9 28 -1 6 -9 14 -7 30 8 12 12 22 24 22 28 0 14 45 8 70 -9 14 -9 20 -20 16
-27 -11 -18 -26 -14 -26 6 0 11 -3 13 -8 5 -4 -6 -20 -13 -35 -15 -15 -1 -26
-7 -25 -13 2 -5 7 -9 12 -7 5 2 6 -3 3 -10 -3 -10 7 -13 42 -13 33 0 50 -5 59
-17 12 -17 38 -26 29 -10 -3 4 10 8 29 9 33 3 45 -9 23 -23 -8 -4 -8 -9 0 -17
18 -18 13 -29 -8 -18 -10 6 -20 8 -23 6 -3 -3 -31 4 -63 15 -70 24 -63 24 -68
3 -4 -14 -5 -12 -6 5 -1 15 -7 22 -21 22 -13 0 -24 10 -30 25 -9 25 -11 25
-35 9 -15 -10 -25 -12 -25 -5 0 7 -20 11 -49 11 -89 0 -221 35 -221 59 0 17
13 19 27 5 9 -8 21 -13 27 -11 50 21 51 21 38 5 -11 -14 -10 -16 9 -11 17 5
20 3 14 -7 -5 -8 -4 -11 3 -6 6 3 9 16 7 28 -3 13 4 30 18 44 23 23 43 32 32
14z m910 -10 c20 7 22 6 18 -11 -3 -12 -14 -19 -29 -19 -17 0 -24 -6 -24 -20
0 -14 -5 -18 -17 -13 -10 4 -14 2 -9 -5 7 -11 -11 -28 -21 -19 -9 10 8 47 22
47 7 0 15 6 18 14 4 9 -3 13 -23 12 -15 -1 -26 -4 -24 -8 2 -4 -1 -10 -7 -14
-8 -4 -9 -3 -5 4 4 7 1 12 -6 12 -8 1 -7 6 5 14 13 10 27 12 48 6 17 -5 40 -5
54 0z m-615 -26 c0 -11 6 -14 21 -9 15 5 19 4 15 -4 -8 -12 6 -15 18 -4 14 14
46 13 46 -2 0 -21 30 -31 40 -15 7 11 12 10 25 -3 18 -19 60 -23 70 -7 4 6 11
7 17 4 5 -4 -1 -14 -16 -24 l-26 -17 19 -25 c24 -30 18 -41 -13 -26 -47 25
-57 28 -75 28 -10 0 -24 7 -31 15 -7 8 -18 14 -24 13 -13 -3 -71 35 -104 69
-22 22 -22 23 -2 23 11 0 20 -7 20 -16z m1418 -70 c-13 -27 -27 -49 -32 -49
-6 0 -14 15 -19 34 -11 43 8 85 35 78 10 -3 21 0 25 6 5 8 9 7 11 -4 2 -9 -7
-38 -20 -65z m-1548 46 c0 -5 -12 -7 -27 -5 -40 5 -41 6 -13 14 27 8 40 5 40
-9z m1450 3 c0 -9 -62 -53 -73 -53 -13 0 -7 23 10 42 16 17 63 26 63 11z
m-1005 -86 c0 -16 6 -32 13 -35 8 -2 10 3 6 15 -3 10 3 2 13 -17 20 -38 11
-79 -17 -80 -8 -1 -1 -7 15 -15 l30 -14 -33 2 c-18 1 -40 9 -49 19 -15 17 -39
16 -28 -1 9 -15 -71 -4 -118 17 -37 16 -47 26 -47 44 0 13 5 29 12 36 15 15
48 16 48 2 0 -5 7 -10 15 -10 8 0 15 -5 15 -11 0 -8 5 -8 15 1 12 10 15 10 15
-4 0 -19 21 -21 39 -3 10 10 11 9 6 -5 -4 -10 -11 -18 -17 -18 -5 0 -6 -4 -3
-10 10 -16 22 -11 28 11 4 14 10 18 18 13 20 -12 71 -15 64 -4 -3 5 -25 18
-48 28 -53 24 -74 47 -58 65 6 8 23 12 39 9 24 -3 28 -8 27 -35z m315 17 c0
-12 -3 -14 -13 -6 -8 7 -17 7 -30 -2 -22 -17 -22 -27 0 -19 11 4 14 3 9 -6 -5
-7 -10 -33 -12 -58 -5 -52 -20 -86 -34 -78 -6 4 -4 21 5 43 l16 37 -26 -27
c-30 -33 -51 -38 -35 -9 5 11 7 27 4 36 -5 11 7 31 37 61 44 45 79 57 79 28z
m-1000 -6 c0 -5 -11 -8 -25 -8 -14 0 -25 3 -25 8 0 4 11 7 25 7 14 0 25 -3 25
-7z m1664 -2 c-3 -8 9 -23 33 -37 l38 -24 -44 -3 c-24 -2 -49 2 -54 7 -8 8 -7
11 1 11 7 0 12 9 12 20 0 11 -7 20 -15 20 -8 0 -15 -5 -15 -11 0 -5 -5 -7 -12
-3 -8 5 -2 12 17 20 39 17 45 17 39 0z m-624 -16 c0 -11 -4 -20 -9 -20 -11 0
-22 26 -14 34 12 12 23 5 23 -14z m-925 0 c17 -4 22 -8 13 -9 -27 -2 -22 -31
5 -30 20 0 21 1 3 8 -19 7 -18 8 4 14 14 4 27 1 32 -6 4 -6 25 -11 48 -11 39
1 40 1 20 -13 -29 -21 -96 -23 -139 -6 -46 19 -46 20 -31 38 8 9 8 15 2 15 -6
0 -14 -4 -17 -10 -3 -5 -14 -10 -23 -10 -15 1 -15 2 2 15 21 16 34 17 81 5z
m-80 -52 c18 -4 17 -6 -7 -16 -33 -14 -36 -32 -8 -50 11 -7 20 -18 20 -26 0
-26 -51 -131 -78 -160 -63 -66 -119 -118 -149 -136 -29 -17 -28 -14 22 50 52
69 110 189 127 265 14 65 29 96 42 86 6 -5 20 -11 31 -13z m1753 -111 c2 -132
12 -173 59 -235 31 -42 25 -51 -9 -14 -60 63 -98 168 -98 270 0 45 4 61 23 79
12 12 22 22 23 22 0 1 1 -55 2 -122z m-1554 82 c3 5 22 9 42 8 20 -1 32 -3 25
-5 -6 -2 -11 -8 -11 -14 0 -6 7 -8 15 -4 13 4 14 2 5 -14 -6 -11 -13 -20 -16
-20 -16 0 -104 44 -104 52 0 5 9 4 19 -2 12 -6 22 -6 25 -1z m151 -20 c-5 -15
-4 -19 4 -15 6 4 18 1 26 -8 20 -19 19 -27 -2 -19 -15 5 -16 3 -6 -7 7 -7 26
-13 43 -13 18 0 30 -5 30 -14 0 -7 9 -13 20 -13 11 0 20 -4 20 -10 0 -5 -13
-7 -28 -4 -23 5 -28 2 -29 -15 -1 -12 2 -19 7 -16 5 3 10 -4 12 -16 2 -11 17
-28 33 -37 17 -9 33 -21 36 -25 3 -4 12 -1 19 8 10 12 10 15 0 15 -8 0 -11 2
-8 5 7 8 38 -5 38 -16 0 -5 -7 -9 -15 -9 -18 0 -20 -17 -2 -23 6 -2 9 -7 6
-11 -3 -3 -39 7 -79 23 -55 23 -77 28 -87 19 -16 -13 -17 4 -1 20 9 9 7 13 -5
18 -9 3 -17 14 -17 24 0 11 -4 21 -9 24 -5 3 -7 14 -4 24 3 12 -4 25 -21 36
-41 26 -29 65 22 75 2 1 0 -9 -3 -20z m49 15 c9 -3 14 -10 11 -14 -6 -10 -45
-1 -45 11 0 10 12 11 34 3z m-289 -34 c-4 -6 -10 -8 -15 -5 -4 3 -10 0 -12 -7
-2 -6 -10 -8 -16 -4 -22 13 -13 26 19 26 18 0 28 -4 24 -10z m355 0 c12 -7 12
-12 2 -22 -9 -9 -12 -9 -12 0 0 6 -7 9 -15 6 -15 -6 -21 7 -8 19 8 9 15 9 33
-3z m-250 -10 c0 -5 -6 -10 -13 -10 -7 0 -21 -6 -32 -13 -17 -13 -17 -14 4
-20 14 -3 28 1 41 15 l18 20 11 -20 c6 -11 8 -28 4 -38 -5 -14 -2 -16 21 -12
15 3 24 3 22 0 -3 -3 2 -11 12 -18 15 -12 12 -13 -18 -7 -38 7 -177 70 -186
84 -3 5 12 9 33 9 21 0 45 5 53 10 19 13 30 13 30 0z m378 -29 c3 -10 -2 -11
-18 -6 -19 6 -22 4 -17 -10 4 -9 7 -24 7 -32 0 -12 7 -14 30 -9 27 5 30 3 30
-18 0 -15 7 -26 20 -29 11 -3 20 -10 20 -16 0 -13 -17 -15 -24 -2 -4 5 -24 12
-46 16 -77 13 -124 84 -65 99 14 4 25 11 25 17 0 15 32 7 38 -10z m109 -26 c2
-14 -1 -25 -6 -25 -6 0 -8 -7 -5 -15 4 -8 2 -15 -3 -15 -33 0 -47 75 -15 82
22 5 25 2 29 -27z m295 -9 c10 -19 8 -18 -16 3 -14 14 -26 29 -26 34 0 13 29
-12 42 -37z m-100 -1 c-3 -5 -7 -4 -10 3 -3 10 -7 10 -20 0 -13 -12 -14 -10
-3 10 10 18 14 20 25 10 8 -7 11 -17 8 -23z m41 18 c-8 -23 -33 -60 -33 -50 0
11 29 67 35 67 2 0 2 -8 -2 -17z m-199 -14 c-2 -4 0 -19 6 -33 7 -19 6 -26 -3
-26 -25 0 -40 18 -32 36 5 11 8 22 7 25 0 3 5 6 13 6 8 0 12 -4 9 -8z m-534
-69 c0 -5 16 -12 35 -16 19 -3 35 -11 35 -16 0 -6 7 -7 16 -4 12 5 15 2 10
-10 -3 -8 -6 -18 -6 -20 0 -3 -12 3 -27 14 -16 10 -42 25 -60 33 -17 7 -29 17
-27 21 7 11 24 10 24 -2z m828 -13 c8 -10 6 -13 -8 -14 -13 -1 -17 3 -13 13 6
17 8 17 21 1z m-298 -17 c0 -15 7 -20 29 -20 20 0 30 -6 34 -20 5 -18 11 -20
46 -14 29 5 41 3 41 -6 0 -8 -8 -10 -24 -6 -14 3 -28 2 -31 -4 -4 -6 7 -10 27
-11 18 0 27 -3 21 -6 -23 -9 -14 -23 15 -23 38 0 60 -15 33 -23 -12 -3 -21 -1
-21 4 0 5 -24 9 -54 9 -56 0 -69 10 -70 55 -1 13 -9 21 -22 23 -27 4 -58 37
-49 51 10 18 25 12 25 -9z m135 -10 c10 -11 14 -20 8 -20 -5 0 -18 9 -28 20
-10 11 -14 20 -8 20 5 0 18 -9 28 -20z m-526 -16 c6 4 11 2 11 -4 0 -7 6 -10
14 -7 8 3 17 3 20 -1 4 -3 14 -6 24 -7 42 -4 82 -18 94 -32 11 -14 10 -15 -11
-8 -17 5 -22 4 -19 -6 6 -17 59 -20 80 -5 9 7 18 25 20 41 2 20 9 31 23 33 16
3 18 1 8 -9 -18 -18 -16 -30 2 -23 8 4 15 1 15 -5 0 -7 8 -7 26 -1 32 12 37
12 29 0 -3 -6 1 -7 9 -4 10 4 18 -1 23 -12 3 -11 11 -22 17 -26 21 -14 -3 -19
-41 -9 -50 14 -96 14 -128 -1 -27 -12 -36 -34 -10 -24 10 4 19 -2 24 -17 9
-22 9 -22 20 6 6 15 13 27 16 27 4 0 3 -4 0 -10 -3 -5 -1 -10 6 -10 7 0 5 -8
-6 -20 -17 -19 -17 -20 0 -20 14 0 16 -6 12 -30 -4 -17 -2 -30 3 -30 6 0 10
-9 10 -20 0 -21 15 -27 25 -10 3 6 11 10 17 10 6 0 5 -7 -3 -17 -12 -15 -12
-16 5 -10 10 4 24 3 30 -2 7 -6 22 -8 34 -4 18 4 20 8 11 19 -7 8 -9 18 -5 21
4 4 11 1 16 -7 7 -11 10 -12 10 -2 0 15 40 6 51 -11 4 -5 21 -7 39 -4 50 11
32 -14 -36 -48 -32 -16 -62 -34 -66 -40 -4 -5 -8 -8 -9 -5 0 3 -2 13 -4 23 -3
14 1 18 14 14 14 -3 17 0 14 14 -6 21 -11 23 -33 10 -8 -6 -18 -7 -24 -4 -5 4
-28 8 -50 9 -64 5 -75 9 -107 35 -30 24 -43 86 -16 76 6 -2 11 -11 9 -20 -2
-11 3 -14 18 -10 11 3 22 9 25 13 6 9 -53 42 -110 60 -46 15 -100 56 -85 65
18 11 11 27 -9 20 -22 -7 -94 32 -85 47 4 6 9 6 14 -2 4 -7 13 -9 19 -6z m-15
-57 c3 3 6 1 6 -5 0 -7 10 -12 23 -12 20 -1 21 -1 4 -11 -23 -13 -77 6 -77 28
0 10 5 11 19 4 10 -6 21 -7 25 -4z m963 -4 c-2 -10 -8 -26 -12 -35 -5 -14 -2
-18 14 -18 12 0 21 -2 21 -5 0 -12 -33 -55 -42 -55 -6 0 -5 7 2 15 22 26 3 28
-22 3 -68 -73 -90 -100 -83 -106 4 -4 15 3 25 16 10 12 22 22 26 22 4 0 -5
-13 -21 -30 -16 -16 -23 -30 -16 -30 7 0 32 21 55 47 35 38 44 43 49 30 5 -12
1 -17 -12 -17 -11 0 -33 -18 -50 -39 -37 -46 -42 -80 -6 -36 l25 30 -16 -38
c-22 -56 -12 -68 16 -19 13 23 26 40 28 37 3 -3 -7 -27 -22 -55 -34 -62 -18
-67 18 -6 15 25 31 48 37 51 5 4 -4 -16 -21 -44 -17 -28 -30 -59 -28 -68 3
-14 7 -10 18 14 8 17 18 29 23 26 4 -2 14 1 22 7 12 10 15 9 15 -4 0 -9 -7
-16 -15 -16 -9 0 -21 -11 -27 -25 -6 -14 -15 -25 -20 -25 -4 0 -8 -6 -8 -12 0
-7 -7 -26 -15 -41 -21 -41 4 -29 28 14 18 31 19 18 2 -23 -4 -10 -3 -18 3 -18
5 0 15 15 22 33 15 37 39 67 53 67 6 0 5 -5 -1 -13 -6 -7 -13 -24 -15 -37 -14
-75 -42 -94 -109 -77 -37 9 -52 27 -23 27 8 0 15 4 15 9 0 5 -7 14 -15 21 -8
7 -15 17 -15 23 0 7 4 7 12 -1 7 -7 19 -12 27 -12 11 0 12 3 4 11 -6 6 -9 17
-7 23 2 6 -21 37 -51 70 -30 32 -53 62 -50 66 3 5 -1 27 -9 50 -14 41 -14 42
17 74 18 17 47 50 65 72 21 24 28 29 18 12 -9 -15 -16 -38 -16 -50 0 -19 -2
-20 -11 -8 -9 13 -10 13 -6 -1 3 -9 0 -22 -6 -28 -6 -6 -7 -14 -3 -18 4 -4 16
3 27 17 24 31 72 120 64 120 -4 0 -3 5 0 10 10 17 28 11 22 -7z m-511 -67 c-2
-6 -8 0 -14 14 -5 14 -7 29 -4 34 7 12 24 -33 18 -48z m-376 14 c14 -11 30
-20 36 -20 16 0 64 -24 64 -32 0 -12 -13 -10 -35 6 -11 7 -37 19 -57 25 -39
13 -72 41 -47 41 8 0 25 -9 39 -20z m264 -26 c-6 -23 -4 -25 15 -19 12 4 21 2
21 -4 0 -6 5 -11 11 -11 5 0 8 4 4 9 -3 6 4 15 15 21 18 10 24 7 21 -12 -2
-12 14 -9 27 4 9 9 12 9 12 -1 0 -8 6 -11 15 -7 9 3 15 0 15 -9 0 -8 9 -15 19
-15 11 0 23 -4 26 -10 4 -6 -9 -10 -32 -10 -21 0 -53 -4 -70 -9 -20 -6 -35 -6
-38 0 -4 5 -22 9 -41 9 -28 0 -36 5 -44 26 -7 17 -7 32 0 45 16 28 32 23 24
-7z m216 15 c0 -6 10 -8 23 -5 12 3 16 3 10 0 -18 -8 -16 -24 5 -41 16 -13 15
-14 -8 -9 -14 3 -30 6 -36 6 -15 0 -25 26 -18 45 7 17 24 20 24 4z m421 -132
c-13 -12 -20 -15 -16 -7 14 26 28 41 33 35 3 -3 -5 -16 -17 -28z m-761 -69 c0
-12 -13 -9 -32 6 -26 19 -22 26 7 13 14 -7 25 -15 25 -19z m598 -32 c54 -56
70 -76 60 -76 -9 0 -139 140 -131 140 5 0 38 -29 71 -64z m-29 -47 c81 -83
105 -117 54 -81 -29 21 -173 169 -173 178 0 14 46 -24 119 -97z m575 82 c3 -5
-1 -11 -8 -14 -8 -3 -17 -1 -19 6 -3 9 -8 8 -20 -2 -16 -13 -25 -2 -10 12 9
10 51 8 57 -2z m-717 -45 c32 -27 42 -11 13 19 -13 14 -20 25 -16 25 8 0 82
-74 121 -121 11 -13 36 -37 55 -52 34 -27 34 -28 8 -21 -18 4 -28 2 -28 -5 0
-9 -5 -9 -21 0 -15 8 -18 14 -10 22 7 7 3 17 -16 35 -16 14 -29 20 -31 14 -4
-12 -52 34 -52 49 0 5 -11 11 -25 15 -14 4 -24 9 -21 11 3 3 -7 16 -22 30 -27
24 -27 24 -2 11 14 -7 35 -22 47 -32z m483 22 c0 -13 -23 -5 -28 10 -2 7 2 10
12 6 9 -3 16 -11 16 -16z m146 5 c-4 -9 -1 -20 5 -24 6 -4 8 -12 5 -18 -11
-16 -26 -13 -20 4 4 8 1 15 -5 15 -8 0 -7 6 1 20 16 24 22 26 14 3z m227 -5
c17 -9 24 -38 8 -38 -5 0 -14 6 -21 14 -6 8 -21 16 -32 18 -12 2 -23 9 -26 16
-4 14 35 8 71 -10z m-419 -7 c3 -5 0 -14 -8 -20 -11 -9 -15 -7 -19 9 -5 20 16
29 27 11z m-556 -23 c-3 -19 2 -22 28 -23 34 -1 64 -20 64 -40 0 -7 7 -18 16
-25 8 -8 14 -25 12 -39 -2 -20 7 -35 43 -66 25 -22 54 -46 65 -53 10 -7 3 -5
-16 4 -19 9 -50 30 -68 45 -49 43 -64 35 -16 -9 22 -20 49 -43 60 -50 10 -7 1
-3 -21 8 -22 12 -58 36 -80 55 -22 19 -43 35 -47 35 -19 0 -5 -34 26 -68 19
-20 32 -40 29 -45 -3 -5 -24 9 -45 32 -22 23 -44 39 -49 35 -5 -3 -9 0 -9 5 0
6 -4 11 -10 11 -5 0 -10 -7 -10 -15 0 -8 5 -15 10 -15 6 0 10 -5 10 -11 0 -17
-31 11 -41 37 -7 20 -14 22 -52 18 -38 -3 -45 -1 -55 19 -6 12 -11 16 -11 10
-2 -25 -21 -13 -21 12 0 14 -3 25 -8 25 -9 0 -68 -131 -64 -142 1 -5 -4 -8
-12 -8 -7 0 -26 -19 -42 -42 -50 -74 -51 -75 -22 -56 25 16 26 16 21 -2 -3
-11 -11 -20 -17 -20 -7 0 -23 -10 -36 -22 -14 -13 -27 -22 -30 -21 -4 1 -19
-9 -35 -23 -15 -13 -31 -22 -34 -19 -3 4 0 10 7 14 7 4 10 16 6 27 -4 14 -4
16 4 5 15 -21 65 22 94 82 12 26 26 47 30 47 5 0 8 7 8 15 0 8 4 15 9 15 14 0
63 89 59 108 -2 11 -14 -1 -37 -37 -18 -30 -39 -61 -47 -68 -8 -8 -14 -19 -14
-24 0 -5 -8 -9 -17 -9 -10 0 -29 -9 -43 -20 -31 -24 -48 -26 -28 -2 9 9 13 23
10 31 -3 9 0 11 7 6 7 -4 19 1 27 11 27 34 105 196 98 203 -4 3 -9 1 -11 -5
-2 -6 -11 -20 -19 -30 -14 -18 -15 -17 -10 14 3 18 1 32 -4 32 -6 0 -10 -10
-10 -22 -1 -13 -19 -54 -41 -93 -21 -38 -42 -78 -45 -87 -4 -10 -11 -18 -17
-18 -8 0 -8 -3 0 -11 13 -13 -5 -52 -33 -74 -30 -23 -40 -17 -14 7 l23 21 -22
8 c-19 8 -32 52 -13 47 4 -1 17 4 30 12 24 16 33 77 10 65 -7 -4 -1 3 15 15
15 12 27 28 27 37 0 8 8 28 17 44 20 33 11 49 -18 31 -17 -11 -24 -8 -56 24
l-36 37 32 -5 c18 -3 51 1 72 8 21 8 45 11 53 8 39 -15 141 -31 144 -23 3 6 9
6 16 0 12 -10 33 -10 51 0 6 3 38 5 73 5 43 -1 61 3 58 11 -5 12 2 23 16 23 5
0 8 -10 6 -22z m-971 -14 c12 -3 24 -13 27 -21 3 -8 1 -11 -4 -8 -6 3 -22 13
-38 21 -28 14 -22 18 15 8z m188 -28 c18 -13 18 -14 -8 -9 -15 3 -27 9 -27 14
0 13 13 11 35 -5z m1475 9 c0 -15 -34 -55 -46 -55 -20 0 -17 9 9 35 22 22 37
30 37 20z m-1242 -30 c4 -4 -38 -4 -93 0 -130 10 -139 19 -12 12 54 -2 101 -8
105 -12z m1160 -10 c1 -15 -3 -25 -12 -25 -7 0 -20 -19 -29 -42 -9 -23 -19
-39 -23 -36 -3 4 -1 16 6 27 7 15 7 21 0 21 -6 0 -13 -8 -17 -17 -7 -20 -51
-63 -65 -63 -4 0 6 14 24 31 20 18 28 32 22 35 -15 6 -6 44 10 44 6 0 24 11
40 25 36 31 41 31 44 0z m466 -11 c7 -19 -1 -34 -19 -34 -18 0 -26 25 -12 39
15 15 24 14 31 -5z m-864 -58 c19 -24 38 -41 43 -39 4 2 7 -1 7 -6 0 -6 -8
-11 -17 -11 -15 0 -13 -4 7 -20 28 -22 21 -26 -13 -9 -52 28 -123 101 -82 85
14 -5 16 -2 11 19 -9 36 4 30 44 -19z m-740 -1 c0 -2 -16 -11 -34 -20 -35 -17
-62 -13 -50 7 4 6 9 5 15 -3 7 -12 11 -11 26 4 16 15 43 24 43 12z m866 -51
c27 -15 27 -15 4 -10 -14 3 -31 6 -37 6 -7 0 -13 5 -13 10 0 14 13 12 46 -6z
m-901 -4 c-3 -5 -16 -15 -28 -21 -22 -12 -22 -12 -3 10 19 21 43 30 31 11z
m-55 -38 c0 -4 -9 -13 -20 -20 -22 -13 -27 -3 -8 16 14 14 28 16 28 4z m410
-47 c-13 -14 -18 -25 -12 -25 9 0 9 -5 0 -20 -14 -22 -38 -27 -38 -8 0 6 8 20
18 31 12 15 14 21 4 24 -6 3 -9 9 -6 15 4 6 10 5 15 -3 8 -11 11 -10 20 4 6
10 13 16 17 13 3 -3 -5 -17 -18 -31z m-385 -5 c-10 -11 -23 -20 -28 -20 -6 0
0 9 13 20 13 11 25 20 28 20 3 0 -3 -9 -13 -20z m678 -67 c-3 -7 -9 -11 -14
-8 -4 3 -6 11 -3 18 2 7 -7 23 -21 35 -14 12 -25 26 -25 32 0 5 15 -7 34 -27
19 -21 32 -43 29 -50z m153 21 c13 -3 24 -10 24 -14 0 -11 -41 0 -65 18 -17
13 -18 14 -2 8 11 -3 30 -9 43 -12z m-382 -10 c4 -10 1 -14 -6 -12 -15 5 -23
28 -10 28 5 0 13 -7 16 -16z m333 -25 c2 -13 -1 -19 -9 -17 -7 3 -13 17 -13
31 -1 31 17 20 22 -14z m-239 5 c7 -14 8 -23 2 -19 -15 9 -32 45 -22 45 5 0
14 -12 20 -26z m-38 -4 c0 -11 -2 -20 -5 -20 -2 0 -9 9 -15 20 -9 16 -8 20 5
20 8 0 15 -9 15 -20z m-370 -10 c0 -13 -6 -20 -17 -19 -11 0 -13 3 -5 6 6 2
12 11 12 19 0 8 2 14 5 14 3 0 5 -9 5 -20z m189 -21 c-17 -12 -25 -14 -35 -5
-9 8 -9 12 -1 15 7 2 16 10 20 18 7 11 12 12 24 2 13 -11 12 -15 -8 -30z
m-249 -20 c0 -7 -30 -34 -31 -28 0 2 -3 17 -5 32 -4 26 -3 27 16 15 11 -7 20
-16 20 -19z m166 -36 c-14 -13 -26 -33 -26 -43 0 -14 -7 -20 -23 -20 -13 0
-28 -5 -35 -12 -19 -19 -14 3 10 50 13 23 28 40 34 38 5 -2 21 4 35 15 33 25
38 3 5 -28z m-189 -24 c-42 -34 -51 -60 -12 -35 18 12 25 13 25 4 1 -7 10 -2
20 11 11 13 20 19 20 14 0 -14 -56 -64 -63 -57 -4 4 -16 -1 -27 -11 -16 -14
-17 -20 -8 -26 10 -6 8 -12 -7 -23 -20 -15 -20 -15 3 -16 13 0 21 -4 18 -9 -4
-5 -19 -4 -37 2 -28 11 -33 10 -46 -10 -9 -13 -21 -23 -29 -23 -7 0 -20 -7
-28 -16 -9 -8 -16 -11 -16 -5 0 17 42 52 87 73 29 13 40 23 36 33 -3 9 0 21 6
29 6 7 7 16 3 20 -7 8 66 76 83 76 5 0 -7 -14 -28 -31z m60 -45 c-29 -28 -38
-55 -12 -34 9 7 19 10 22 6 10 -10 -18 -26 -45 -26 -13 0 -22 -6 -21 -12 3
-23 -1 -38 -9 -38 -4 0 -8 10 -8 23 0 20 85 120 95 111 2 -2 -8 -16 -22 -30z
m-147 1 c0 -2 -22 -16 -50 -30 -27 -14 -50 -22 -50 -18 0 5 22 18 48 30 57 26
52 24 52 18z m-73 -96 c-26 -17 -47 -36 -47 -43 0 -16 -59 -76 -145 -147 -81
-66 -113 -106 -122 -149 -11 -60 -34 -22 -48 82 -4 29 0 46 17 70 37 54 81 99
112 115 43 23 167 63 176 58 4 -3 23 6 41 19 19 13 40 25 48 25 8 1 -7 -13
-32 -30z m68 -59 c-3 -5 -13 -10 -21 -10 -8 0 -14 5 -14 10 0 6 9 10 21 10 11
0 17 -4 14 -10z m-181 -134 c-3 -9 -11 -16 -17 -16 -6 0 -21 -10 -34 -22 -13
-12 -25 -19 -28 -16 -3 3 13 22 36 42 42 38 54 42 43 12z m-284 -61 c0 -8 -7
-15 -15 -15 -8 0 -15 7 -15 15 0 8 7 15 15 15 8 0 15 -7 15 -15z m933 -14
c-10 -10 -31 -21 -48 -25 -16 -4 -32 -11 -35 -16 -3 -4 -16 -3 -30 3 -23 9
-22 11 24 19 27 5 58 15 70 23 29 21 40 19 19 -4z m127 7 c0 -5 -1 -8 -2 -8
-2 0 -25 -7 -53 -15 l-50 -15 25 23 c24 21 80 31 80 15z m100 -3 c-14 -8 -32
-14 -40 -14 -9 0 -4 6 10 14 14 8 32 14 40 14 9 0 4 -6 -10 -14z m-974 -10
c-10 -7 -15 -18 -11 -24 3 -6 1 -11 -4 -11 -6 0 -11 6 -11 13 0 16 20 37 35
37 5 0 2 -7 -9 -15z m864 -35 c-19 -13 -30 -13 -30 0 0 6 10 10 23 10 18 0 19
-2 7 -10z m225 -35 c-27 -8 -63 -14 -80 -15 -43 -1 -103 -32 -98 -50 3 -11 1
-11 -10 2 -8 10 -17 15 -21 11 -3 -4 -16 -8 -27 -10 -11 -2 -40 -15 -65 -29
-24 -14 -71 -32 -104 -40 -54 -12 -65 -12 -98 2 -20 8 -38 15 -40 14 -7 -2
-69 35 -82 49 -8 9 -28 25 -43 35 -16 9 -27 19 -25 21 2 3 136 7 298 11 162 4
297 8 299 10 2 2 36 4 75 3 l71 0 -50 -14z m-1145 -9 c0 -7 -6 -19 -14 -25
-19 -16 -31 4 -14 23 17 19 28 20 28 2z m325 4 c4 -6 -9 -10 -33 -10 -21 0
-65 -9 -98 -20 -65 -22 -84 -24 -84 -12 0 8 34 21 110 41 48 13 98 13 105 1z
m-439 -9 c-3 -5 -15 -7 -26 -4 -28 7 -25 13 6 13 14 0 23 -4 20 -9z m1349 -1
c3 -5 -1 -10 -10 -10 -8 0 -37 -11 -63 -24 -26 -13 -63 -27 -82 -30 l-35 -7
22 19 c12 11 19 23 15 27 -4 5 0 6 10 2 9 -3 38 3 65 13 56 22 69 24 78 10z
m59 -12 c-5 -9 -2 -9 9 1 9 7 17 9 17 4 0 -6 43 -9 105 -7 l105 3 -30 -31
c-21 -21 -43 -31 -73 -35 -66 -7 -88 -13 -83 -22 3 -5 34 -6 68 -4 54 5 61 3
50 -9 -6 -8 -9 -18 -5 -21 3 -4 -1 -7 -10 -7 -10 0 -16 3 -16 8 3 19 -3 22
-23 10 -43 -23 -128 -13 -128 15 0 4 5 5 10 2 6 -4 18 -4 28 0 14 5 14 7 2 15
-22 14 -70 12 -71 -2 0 -10 -2 -10 -6 0 -3 8 -27 12 -66 12 l-62 1 83 33 c46
19 86 37 89 40 11 10 15 7 7 -6z m537 -8 c21 0 39 -4 39 -10 0 -5 -9 -10 -20
-10 -10 0 -41 -7 -67 -17 -61 -21 -233 -25 -233 -5 0 7 4 11 9 7 5 -3 20 -1
33 4 71 29 81 31 141 32 28 1 47 6 48 12 0 8 2 8 6 0 2 -8 22 -13 44 -13z
m209 -23 c0 -18 -2 -19 -10 -7 -13 20 -13 43 0 35 6 -3 10 -16 10 -28z m-1591
7 c12 -4 34 -17 47 -29 l25 -23 -38 9 c-117 29 -160 35 -207 28 -95 -13 -159
-18 -152 -12 3 4 37 15 74 24 66 18 194 19 251 3z m-370 -43 c1 -10 -2 -11
-13 -2 -8 7 -12 21 -8 33 5 21 6 21 13 2 4 -10 8 -25 8 -33z m-205 6 l-49 -33
-17 28 c-10 16 -18 31 -18 33 0 3 30 5 66 5 l66 0 -48 -33z m2026 23 c0 -5 -9
-14 -20 -20 -16 -8 -20 -8 -20 4 0 8 8 17 18 19 9 3 18 5 20 6 1 0 2 -3 2 -9z
m194 1 c4 -5 3 -17 0 -26 -5 -13 -8 -14 -15 -3 -5 7 -9 19 -9 26 0 14 16 16
24 3z m-2097 -26 c1 -5 -15 -11 -37 -12 -45 -3 -51 3 -17 17 26 11 49 9 54 -5z
m2011 -4 c13 -1 21 -4 19 -8 -3 -5 -36 -7 -74 -6 -83 2 -81 2 -66 11 10 6 37
7 121 3z m-1828 -8 c-8 -3 -23 -10 -32 -15 -11 -5 -18 -5 -18 1 0 10 23 18 50
19 13 0 13 0 0 -5z m860 -23 c0 -11 -6 -20 -13 -20 -7 0 -13 9 -13 20 0 11 6
20 13 20 7 0 13 -9 13 -20z m44 11 c3 -5 0 -11 -8 -14 -15 -6 -26 1 -26 15 0
11 27 10 34 -1z m84 -21 c10 -16 10 -20 -2 -20 -7 0 -16 9 -19 20 -3 11 -2 20
2 20 3 0 12 -9 19 -20z m-32 -13 c4 -4 -2 -7 -14 -7 -12 0 -22 4 -22 9 0 10
26 9 36 -2z m599 3 c-8 -13 -35 -13 -55 0 -11 7 -5 10 23 10 23 0 36 -4 32
-10z"/>
<path d="M1969 2379 c-2 -11 -11 -88 -12 -109 -2 -20 3 -26 25 -28 42 -5 78
24 78 63 0 36 -21 60 -62 70 -16 4 -28 6 -29 4z m54 -61 c6 -22 -7 -48 -24
-48 -10 0 -12 53 -2 63 12 12 21 7 26 -15z"/>
<path d="M1948 2013 c0 -5 -2 -12 -3 -18 -2 -5 -3 -14 -4 -20 -1 -5 -6 -3 -11
5 -8 13 -11 13 -26 -2 -21 -21 -13 -42 23 -60 34 -17 70 -6 95 27 17 22 16 24
-7 49 -22 24 -63 36 -67 19z m62 -52 c-12 -24 -43 -35 -72 -25 -19 6 -19 7 -4
16 9 5 25 6 36 3 14 -5 20 -2 20 9 0 9 7 16 15 16 12 0 13 -4 5 -19z"/>
<path d="M1807 1433 c-26 -37 -29 -55 -5 -35 19 16 50 72 40 72 -5 0 -21 -17
-35 -37z"/>
<path d="M1567 1834 c-4 -4 -7 -16 -7 -26 0 -16 3 -17 21 -8 11 6 19 16 16 23
-4 14 -21 20 -30 11z"/>
<path d="M805 1800 c-7 -12 2 -12 30 0 19 8 19 9 -2 9 -12 1 -25 -3 -28 -9z"/>
<path d="M1705 1130 c10 -11 22 -20 27 -20 4 0 -1 9 -12 20 -11 11 -23 20 -27
20 -3 0 2 -9 12 -20z"/>
<path d="M2710 1188 c0 -15 -5 -28 -11 -30 -7 -2 -9 -13 -4 -26 3 -13 12 -21
18 -19 16 5 21 77 8 90 -8 8 -11 3 -11 -15z"/>
<path d="M1490 529 c-136 -7 -179 -13 -225 -34 -16 -7 -61 -25 -100 -40 -89
-34 -155 -67 -155 -78 0 -9 117 -5 190 6 19 3 103 8 185 12 191 7 243 11 258
23 7 4 99 9 206 10 107 1 196 4 199 6 2 3 2 17 -2 31 -5 21 -12 25 -46 25 -21
0 -50 5 -64 11 -20 9 -29 9 -41 -1 -12 -10 -15 -10 -15 2 0 11 -15 17 -50 22
-28 4 -54 5 -58 3 -4 -3 -41 -2 -82 2 -41 3 -131 3 -200 0z m140 -39 c0 -10
-101 -39 -157 -44 -29 -3 -53 -3 -53 -1 0 11 70 40 110 45 61 8 100 8 100 0z
m130 -9 c0 -10 -118 -36 -126 -28 -10 9 58 35 94 36 17 1 32 -3 32 -8z m110
-11 c11 -7 7 -10 -18 -10 -20 0 -31 4 -27 10 8 13 26 13 45 0z m-585 -30 c-7
-12 -55 -14 -55 -2 0 4 14 9 31 10 19 2 28 -2 24 -8z"/>
</g>
</svg>
